<svg width="79" height="22" viewBox="0 0 79 22" fill="none" xmlns="http://www.w3.org/2000/svg">
<path d="M12.46 21V17.91H3.64V0.989998H0.13V21H12.46ZM24.0498 21.36C30.0498 21.36 34.2798 16.98 34.2798 11.01C34.2798 5.04 30.0498 0.659999 24.0498 0.659999C18.0498 0.659999 13.8198 5.04 13.8198 11.01C13.8198 16.98 18.0498 21.36 24.0498 21.36ZM24.0498 18.24C19.9998 18.24 17.4198 15.12 17.4198 11.01C17.4198 6.87 19.9998 3.78 24.0498 3.78C28.0698 3.78 30.6798 6.87 30.6798 11.01C30.6798 15.12 28.0698 18.24 24.0498 18.24ZM47.2593 21.39C50.7393 21.39 53.5293 19.95 55.5093 17.76V10.26H46.0293V13.35H51.9993V16.47C51.0993 17.31 49.2993 18.27 47.2593 18.27C43.2993 18.27 40.3593 15.21 40.3593 11.01C40.3593 6.81 43.2993 3.78 47.2593 3.78C49.5093 3.78 51.3993 4.95 52.4493 6.45L55.3293 4.83C53.7093 2.52 51.1593 0.659999 47.2593 0.659999C41.4693 0.659999 36.7593 4.74 36.7593 11.01C36.7593 17.28 41.4693 21.39 47.2593 21.39ZM68.4932 21.36C74.4932 21.36 78.7232 16.98 78.7232 11.01C78.7232 5.04 74.4932 0.659999 68.4932 0.659999C62.4932 0.659999 58.2632 5.04 58.2632 11.01C58.2632 16.98 62.4932 21.36 68.4932 21.36ZM68.4932 18.24C64.4432 18.24 61.8632 15.12 61.8632 11.01C61.8632 6.87 64.4432 3.78 68.4932 3.78C72.5132 3.78 75.1232 6.87 75.1232 11.01C75.1232 15.12 72.5132 18.24 68.4932 18.24Z" fill="black"/>
</svg>
