<svg width="96" height="73" viewBox="0 0 96 73" fill="none" xmlns="http://www.w3.org/2000/svg">
<rect width="60" height="60" rx="3" fill="#019595" fill-opacity="0.15"/>
<path fill-rule="evenodd" clip-rule="evenodd" d="M24.845 64.292V30.2969H30.075V64.292C30.075 64.9856 30.3505 65.6507 30.8409 66.1411C31.3313 66.6315 31.9965 66.907 32.69 66.907H79.7602C80.4538 66.907 81.1189 66.6315 81.6093 66.1411C82.0997 65.6507 82.3752 64.9856 82.3752 64.292V30.2969H87.6053V64.292C87.6053 66.3727 86.7787 68.3681 85.3075 69.8393C83.8363 71.3105 81.8409 72.1371 79.7602 72.1371H32.69C30.6094 72.1371 28.614 71.3105 27.1427 69.8393C25.6715 68.3681 24.845 66.3727 24.845 64.292ZM82.3752 6.76174V25.0668L71.9152 14.6068V6.76174C71.9152 6.0682 72.1907 5.40306 72.6811 4.91265C73.1715 4.42224 73.8367 4.14673 74.5302 4.14673H79.7602C80.4538 4.14673 81.1189 4.42224 81.6093 4.91265C82.0997 5.40306 82.3752 6.0682 82.3752 6.76174Z" fill="#019595"/>
<path fill-rule="evenodd" clip-rule="evenodd" d="M52.5309 1.53128C53.5116 0.550802 54.8417 0 56.2285 0C57.6153 0 58.9453 0.550802 59.9261 1.53128L94.6901 36.29C95.1811 36.7811 95.457 37.447 95.457 38.1415C95.457 38.8359 95.1811 39.5019 94.6901 39.9929C94.1991 40.4839 93.5331 40.7598 92.8387 40.7598C92.1442 40.7598 91.4783 40.4839 90.9872 39.9929L56.2285 5.22891L21.4697 39.9929C20.9787 40.4839 20.3127 40.7598 19.6183 40.7598C18.9239 40.7598 18.2579 40.4839 17.7669 39.9929C17.2759 39.5019 17 38.8359 17 38.1415C17 37.447 17.2759 36.7811 17.7669 36.29L52.5309 1.53128Z" fill="#019595"/>
</svg>
