<svg width="115" height="86" viewBox="0 0 115 86" fill="none" xmlns="http://www.w3.org/2000/svg">
<path d="M67.6313 48.3422C67.6313 47.772 67.7548 47.2086 67.9933 46.6908C68.2318 46.1729 68.5796 45.7128 69.0129 45.3422L80.1643 35.7856C80.5218 35.4798 80.9767 35.3118 81.4472 35.3118C81.9176 35.3118 82.3726 35.4798 82.7301 35.7856L93.8854 45.3461C94.3174 45.7167 94.6643 46.1763 94.9021 46.6934C95.1398 47.2106 95.263 47.773 95.263 48.3422V60.3422C95.263 60.8657 95.0551 61.3677 94.6849 61.7379C94.3148 62.108 93.8128 62.3159 93.2893 62.3159H86.3814C86.1197 62.3159 85.8687 62.212 85.6836 62.0269C85.4985 61.8418 85.3946 61.5908 85.3946 61.3291V56.3949C85.3946 55.8714 85.1866 55.3694 84.8165 54.9993C84.4463 54.6291 83.9443 54.4212 83.4209 54.4212H79.4735C78.95 54.4212 78.448 54.6291 78.0779 54.9993C77.7077 55.3694 77.4998 55.8714 77.4998 56.3949V61.3291C77.4998 61.5908 77.3958 61.8418 77.2108 62.0269C77.0257 62.212 76.7747 62.3159 76.513 62.3159H69.605C69.0816 62.3159 68.5796 62.108 68.2094 61.7379C67.8393 61.3677 67.6313 60.8657 67.6313 60.3422V48.3422Z" fill="#1B213A"/>
<path d="M55.7895 82.1867V71.1972C58.2645 73.0564 61.3395 74.1578 64.6711 74.1578H98.2239C102.15 74.1578 105.915 72.5982 108.691 69.8222C111.467 67.0461 113.027 63.281 113.027 59.3551V28.0642C114.032 26.9247 114.687 25.5194 114.913 24.0169C115.139 22.5144 114.927 20.9786 114.302 19.5937C113.676 18.2088 112.665 17.0338 111.389 16.2096C110.112 15.3853 108.625 14.947 107.105 14.947H54.7316C53.8626 13.4421 52.5213 12.2659 50.9158 11.6009C49.3102 10.9359 47.53 10.8192 45.8514 11.269C44.1728 11.7188 42.6895 12.7099 41.6315 14.0886C40.5736 15.4673 40.0001 17.1566 40 18.8944V82.1867C40 84.2946 41.7092 85.9999 43.8132 85.9999H51.9764C52.9877 85.9999 53.9576 85.5982 54.6727 84.8831C55.3878 84.1679 55.7895 83.1981 55.7895 82.1867ZM47.8948 16.9207C48.3498 16.9206 48.7908 17.0777 49.1433 17.3655C49.4958 17.6532 49.738 18.0539 49.829 18.4997L50.3106 20.8681H107.105C107.629 20.8681 108.131 21.0761 108.501 21.4462C108.871 21.8163 109.079 22.3183 109.079 22.8418C109.079 23.3653 108.871 23.8673 108.501 24.2374C108.131 24.6075 107.629 24.8155 107.105 24.8155H49.8685V80.0788H45.9211V18.8944C45.9211 18.371 46.129 17.8689 46.4992 17.4988C46.8693 17.1287 47.3713 16.9207 47.8948 16.9207ZM64.6711 68.2367C62.3156 68.2367 60.0565 67.301 58.3909 65.6353C56.7253 63.9697 55.7895 61.7106 55.7895 59.3551V30.7366H107.105V59.3551C107.105 60.5214 106.876 61.6764 106.429 62.7539C105.983 63.8315 105.329 64.8106 104.504 65.6353C103.679 66.4601 102.7 67.1143 101.623 67.5606C100.545 68.007 99.3902 68.2367 98.2239 68.2367H64.6711Z" fill="#1B213A"/>
<rect width="66.5934" height="66.5934" rx="3" fill="#1B213A" fill-opacity="0.15"/>
</svg>
