<svg width="94" height="72" viewBox="0 0 94 72" fill="none" xmlns="http://www.w3.org/2000/svg">
<rect width="60" height="60" rx="3" fill="#107ADC" fill-opacity="0.15"/>
<path d="M92.424 35.422L60.0323 2.94747L57.8612 0.769611C57.3665 0.276662 56.6975 0 56.0002 0C55.3028 0 54.6338 0.276662 54.1391 0.769611L19.5763 35.422C19.0694 35.9285 18.6688 36.5317 18.3981 37.196C18.1275 37.8604 17.9922 38.5724 18.0003 39.29C18.0339 42.2499 20.4901 44.6127 23.4409 44.6127H27.0036V72H84.9967V44.6127H88.6349C90.0684 44.6127 91.418 44.0494 92.4323 43.0319C92.9318 42.5325 93.3275 41.9387 93.5966 41.2849C93.8657 40.631 94.0028 39.9301 94 39.2228C94 37.7933 93.4383 36.4395 92.424 35.422ZM60.6946 65.9457H51.3057V48.7919H60.6946V65.9457ZM78.961 38.5585V65.9457H66.0597V46.7738C66.0597 44.9155 64.5591 43.4103 62.7065 43.4103H49.2938C47.4412 43.4103 45.9406 44.9155 45.9406 46.7738V65.9457H33.0393V38.5585H24.9917L56.0085 7.47137L57.945 9.41379L87.017 38.5585H78.961Z" fill="#107ADC"/>
</svg>
