<svg width="554" height="554" viewBox="0 0 554 554" fill="none" xmlns="http://www.w3.org/2000/svg">
<path d="M346.25 230.833C359.946 230.833 373.335 226.772 384.723 219.163C396.111 211.553 404.987 200.738 410.229 188.084C415.47 175.43 416.841 161.506 414.169 148.073C411.497 134.64 404.902 122.301 395.217 112.616C385.532 102.931 373.193 96.3359 359.76 93.6639C346.327 90.9919 332.403 92.3633 319.749 97.6046C307.095 102.846 296.28 111.722 288.671 123.11C281.061 134.498 277 147.887 277 161.583C277 179.95 284.296 197.564 297.283 210.55C310.27 223.537 327.884 230.833 346.25 230.833ZM346.25 138.5C350.815 138.5 355.278 139.854 359.074 142.39C362.87 144.927 365.829 148.532 367.576 152.75C369.323 156.968 369.78 161.609 368.89 166.087C367.999 170.564 365.801 174.677 362.572 177.906C359.344 181.134 355.231 183.332 350.753 184.223C346.276 185.114 341.634 184.657 337.416 182.91C333.198 181.162 329.593 178.204 327.057 174.408C324.52 170.612 323.167 166.149 323.167 161.583C323.167 155.461 325.599 149.59 329.928 145.261C334.257 140.932 340.128 138.5 346.25 138.5Z" fill="#88BACD"/>
<path d="M507.833 0H46.1667C33.9225 0 22.1798 4.86397 13.5219 13.5219C4.86397 22.1798 0 33.9225 0 46.1667V507.833C0 520.078 4.86397 531.82 13.5219 540.478C22.1798 549.136 33.9225 554 46.1667 554H507.833C520.078 554 531.82 549.136 540.478 540.478C549.136 531.82 554 520.078 554 507.833V46.1667C554 33.9225 549.136 22.1798 540.478 13.5219C531.82 4.86397 520.078 0 507.833 0ZM507.833 507.833H46.1667V369.333L161.583 253.917L290.619 382.953C299.269 391.551 310.97 396.377 323.167 396.377C335.363 396.377 347.064 391.551 355.714 382.953L392.417 346.25L507.833 461.667V507.833ZM507.833 396.341L424.964 313.472C416.314 304.873 404.613 300.047 392.417 300.047C380.22 300.047 368.519 304.873 359.869 313.472L323.167 350.174L194.131 221.138C185.481 212.54 173.78 207.713 161.583 207.713C149.387 207.713 137.686 212.54 129.036 221.138L46.1667 304.008V46.1667H507.833V396.341Z" fill="#88BACD"/>
</svg>
