<svg width="554" height="554" viewBox="0 0 554 554" fill="none" xmlns="http://www.w3.org/2000/svg">
<path d="M507.833 0H46.1667C33.9225 0 22.1798 4.86397 13.5219 13.5219C4.86397 22.1798 0 33.9225 0 46.1667V507.833C0 520.078 4.86397 531.82 13.5219 540.478C22.1798 549.136 33.9225 554 46.1667 554H507.833C520.078 554 531.82 549.136 540.478 540.478C549.136 531.82 554 520.078 554 507.833V46.1667C554 33.9225 549.136 22.1798 540.478 13.5219C531.82 4.86397 520.078 0 507.833 0ZM507.833 507.833H46.1667V369.333L161.583 253.917L290.619 382.953C299.269 391.551 310.97 396.377 323.167 396.377C335.363 396.377 347.064 391.551 355.714 382.953L392.417 346.25L507.833 461.667V507.833ZM507.833 396.341L424.964 313.472C416.314 304.873 404.613 300.047 392.417 300.047C380.22 300.047 368.519 304.873 359.869 313.472L323.167 350.174L194.131 221.138C185.481 212.54 173.78 207.713 161.583 207.713C149.387 207.713 137.686 212.54 129.036 221.138L46.1667 304.008V46.1667H507.833V396.341Z" fill="#88BACD"/>
</svg>
